<?xml version="1.0" standalone="no"?>
<!DOCTYPE svg PUBLIC "-//W3C//DTD SVG 20010904//EN" "http://www.w3.org/TR/2001/REC-SVG-20010904/DTD/svg10.dtd">
<!-- Created using Krita: https://krita.org -->
<svg xmlns="http://www.w3.org/2000/svg" 
    xmlns:xlink="http://www.w3.org/1999/xlink"
    xmlns:krita="http://krita.org/namespaces/svg/krita"
    xmlns:sodipodi="http://sodipodi.sourceforge.net/DTD/sodipodi-0.dtd"
    width="612pt"
    height="792pt"
    viewBox="0 0 612 792">
<defs/>
<rect id="shape0" fill="#ffffff" fill-rule="evenodd" stroke="#ffffff" stroke-width="9.6" stroke-linecap="square" stroke-linejoin="bevel" width="612" height="792"/><text id="shape1" krita:useRichText="true" krita:textVersion="2" transform="translate(36.375, 517.795862421513)" fill="#000000" stroke-opacity="0" stroke="#000000" stroke-width="0" stroke-linecap="square" stroke-linejoin="bevel" font-family="Proxima Nova Bl" font-size="60" font-size-adjust="0.482893" font-stretch="normal" font-weight="900" letter-spacing="2.5" text-anchor="middle" word-spacing="0"><tspan><tspan x="269.625">PLEASE </tspan><tspan fill="#bd314a">MASK UP</tspan></tspan><tspan x="269.625" dy="60">BETWEEN BITES</tspan><tspan x="269.625" dy="60">AND SIPS</tspan></text><path id="shape2" transform="matrix(0.942602954024725 -0.000485746891798727 0.000485746891798728 0.942602954024725 117.753455721038 116.704749430085)" fill="#bd314a" stroke-opacity="0" stroke="#000000" stroke-width="0" stroke-linecap="square" stroke-linejoin="bevel" d="M32.4375 0.75C33.1636 0.637368 33.8896 0.524736 34.6377 0.408691C35.8109 0.293401 35.8109 0.293401 37.0078 0.175781C37.8139 0.13147 38.6199 0.0871582 39.4504 0.0415039C40.2712 0.0278076 41.0919 0.0141113 41.9375 0C43.1676 0.0181274 43.1676 0.0181274 44.4226 0.0366211C45.228 0.0799658 46.0335 0.123311 46.8633 0.167969C47.6453 0.244507 48.4272 0.321045 49.2329 0.399902C50.3242 0.573201 50.3242 0.573201 51.4375 0.75C52.0632 0.915806 52.6889 1.08161 53.3335 1.25244C53.8976 1.45402 54.4617 1.6556 55.043 1.86328C56.06 2.34152 57.0771 2.81977 58.125 3.3125C59.0544 3.87066 59.9838 4.42883 60.9414 5.00391C61.7651 5.58012 62.5888 6.15633 63.4375 6.75C64.5029 7.4751 64.5029 7.4751 65.5898 8.21484C66.2408 8.72145 66.8918 9.22805 67.5625 9.75C68.4887 10.6221 68.4887 10.6221 69.4336 11.5117C70.4255 12.6197 70.4255 12.6197 71.4375 13.75C71.8424 14.251 72.2474 14.7519 72.6646 15.2681C73.3121 16.1041 73.3121 16.1041 73.9727 16.957C74.4096 17.543 74.8465 18.129 75.2966 18.7327C75.735 19.3365 76.1734 19.9404 76.625 20.5625C77.0576 21.1644 77.4901 21.7663 77.9358 22.3865C78.3514 22.986 78.7671 23.5855 79.1953 24.2031C79.5888 24.7967 79.9823 25.3904 80.3877 26.002C80.9073 26.8672 80.9073 26.8672 81.4375 27.75C81.6963 28.2985 81.9551 28.847 82.2217 29.4121C82.4347 29.931 82.6477 30.4498 82.8672 30.9844C83.241 31.9177 83.6148 32.8509 84 33.8125C84.3417 34.5418 84.6834 35.271 85.0355 36.0224C85.4982 36.5925 85.9608 37.1626 86.4375 37.75C87.3663 37.6778 87.3663 37.6778 88.3139 37.6042C89.0361 37.3124 89.7583 37.0206 90.5024 36.72C91.3062 36.409 92.1099 36.0981 92.938 35.7777C93.7629 35.4386 94.5877 35.0994 95.4375 34.75C96.1948 34.4651 96.9521 34.1801 97.7324 33.8866C98.8614 33.4655 98.8614 33.4655 100.013 33.0359C101.181 32.5848 101.181 32.5848 102.373 32.1246C103.186 31.8089 103.999 31.4932 104.836 31.168C105.71 30.8313 106.585 30.4946 107.486 30.1478C108.392 29.7993 109.297 29.4508 110.23 29.0918C111.15 28.7372 112.07 28.3827 113.017 28.0173C114.401 27.4828 114.401 27.4828 115.813 26.9375C116.717 26.5865 117.622 26.2354 118.554 25.8738C119.902 25.3513 119.902 25.3513 121.277 24.8184C122.175 24.4723 123.073 24.1263 123.998 23.7698C124.893 23.4268 125.788 23.0838 126.711 22.7305C127.606 22.39 128.501 22.0495 129.424 21.6986C130.759 21.1973 130.759 21.1973 132.122 20.6858C133.004 20.3603 133.885 20.0348 134.794 19.6995C135.666 19.3862 136.539 19.0728 137.438 18.75C138.3 18.454 139.163 18.158 140.053 17.853C141.325 17.4306 141.325 17.4306 142.622 16.9998C143.45 16.7317 144.277 16.4636 145.13 16.1874C145.937 15.9322 146.743 15.677 147.574 15.4141C148.361 15.1694 149.148 14.9248 149.959 14.6727C150.715 14.4429 151.471 14.2131 152.249 13.9763C152.967 13.7632 153.686 13.5501 154.426 13.3305C155.09 13.139 155.754 12.9474 156.438 12.75C157.544 12.4478 158.65 12.1456 159.79 11.8342C160.745 11.5937 161.7 11.3532 162.684 11.1055C163.989 10.8032 163.989 10.8032 165.32 10.4949C166.585 10.219 166.585 10.219 167.875 9.9375C168.802 9.7323 169.729 9.52709 170.684 9.31567C171.601 9.11869 172.519 8.9217 173.465 8.71875C174.327 8.54473 175.189 8.3707 176.078 8.19141C177.246 7.97291 177.246 7.97291 178.438 7.75C179.068 7.64816 179.699 7.54633 180.348 7.44141C180.895 7.36793 181.441 7.29445 182.004 7.21875C183.456 7.07953 183.456 7.07953 184.938 6.9375C185.835 6.89367 186.732 6.84984 187.656 6.80469C188.574 6.78664 189.492 6.76859 190.438 6.75C191.562 6.71133 192.686 6.67266 193.844 6.63281C194.433 6.61807 195.022 6.60333 195.63 6.58813C196.525 6.57545 196.525 6.57545 197.438 6.5625C198.329 6.56431 198.329 6.56431 199.24 6.56616C199.827 6.57656 200.414 6.58695 201.02 6.59766C202.147 6.64793 203.275 6.6982 204.438 6.75C205.39 6.85184 206.343 6.95367 207.324 7.05859C208.248 7.20426 209.173 7.34992 210.125 7.5C211.566 7.77264 211.566 7.77264 213.035 8.05078C214.158 8.28152 215.281 8.51227 216.438 8.75C217.167 8.89486 217.896 9.03972 218.648 9.18896C219.443 9.34704 220.239 9.50511 221.059 9.66797C222.287 9.91595 222.287 9.91595 223.541 10.1689C224.373 10.3401 225.205 10.5112 226.063 10.6875C227.303 10.95 227.303 10.95 228.569 11.2178C229.372 11.3921 230.176 11.5665 231.004 11.7461C231.774 11.9174 232.543 12.0887 233.336 12.2651C234.03 12.4251 234.723 12.5851 235.438 12.75C236.967 13.1387 236.967 13.1387 238.527 13.5352C239.751 13.889 239.751 13.889 241 14.25C241.698 14.478 242.396 14.706 243.115 14.9409C243.881 15.2079 244.648 15.4749 245.438 15.75C246.418 16.1349 246.418 16.1349 247.419 16.5276C248.131 16.8188 248.844 17.1101 249.578 17.4102C250.454 17.7629 251.33 18.1156 252.233 18.479C253.29 18.8984 254.348 19.3179 255.438 19.75C256.396 20.1212 256.396 20.1212 257.374 20.4999C258.066 20.766 258.759 21.032 259.472 21.3062C260.566 21.7244 260.566 21.7244 261.681 22.1511C262.44 22.4403 263.199 22.7294 263.98 23.0273C264.757 23.3227 265.534 23.6181 266.335 23.9224C267.127 24.2232 267.92 24.524 268.736 24.834C269.541 25.1391 270.347 25.4442 271.176 25.7585C271.984 26.0651 272.792 26.3717 273.625 26.6875C274.424 26.9923 275.224 27.2971 276.047 27.6111C277.239 28.0656 277.239 28.0656 278.455 28.5293C279.246 28.8303 280.038 29.1314 280.853 29.4416C282.03 29.8862 282.03 29.8862 283.23 30.3398C284.392 30.772 284.392 30.772 285.578 31.213C286.343 31.4957 287.108 31.7785 287.896 32.0698C288.649 32.347 289.402 32.6242 290.178 32.9099C290.924 33.1871 291.669 33.4643 292.438 33.75C293.186 34.0389 293.934 34.3277 294.705 34.6253C295.436 34.9077 296.167 35.19 296.92 35.481C297.619 35.7393 298.317 35.9976 299.036 36.2638C299.701 36.508 300.366 36.7523 301.051 37.0039C302.003 37.3837 302.003 37.3837 302.974 37.7712C303.55 37.9764 304.126 38.1815 304.72 38.3928C305.617 38.5107 306.514 38.6286 307.438 38.75C307.835 37.6587 307.534 37.6284 307.94 36.5151C308.004 35.5926 308.572 34.7878 308.639 33.8373C309.397 32.362 309.195 32.2747 309.969 30.7695C310.28 30.2502 310.591 29.7309 310.912 29.1958C311.25 28.6568 311.589 28.1178 311.938 27.5625C312.292 26.9952 312.647 26.4278 313.012 25.8433C313.381 25.2698 313.749 24.6963 314.129 24.1055C314.7 23.2554 314.7 23.2554 315.282 22.3882C315.663 21.8476 316.045 21.307 316.438 20.75C316.805 20.2674 317.172 19.7848 317.55 19.2876C317.914 18.8382 318.278 18.3888 318.652 17.9258C319.386 17.084 320.119 16.2423 320.875 15.375C321.624 14.5822 322.373 13.7895 323.145 12.9727C323.901 12.2392 324.658 11.5057 325.438 10.75C326.204 10.0681 326.971 9.38617 327.762 8.68359C328.521 8.06613 329.28 7.44867 330.063 6.8125C330.735 6.28785 331.408 5.7632 332.102 5.22266C332.872 4.73668 333.643 4.2507 334.438 3.75C334.94 3.47261 335.442 3.19522 335.959 2.90942C336.801 2.5018 336.801 2.5018 337.66 2.08594C338.262 1.84013 338.863 1.59432 339.483 1.34106C340.128 1.14601 340.773 0.950962 341.438 0.75C342.126 0.650984 342.815 0.551968 343.524 0.449951C344.245 0.405881 344.965 0.361812 345.707 0.316406C346.446 0.304805 347.184 0.293203 347.945 0.28125C348.706 0.291563 349.466 0.301875 350.25 0.3125C351.443 0.326035 351.443 0.326035 352.66 0.339844C353.449 0.363047 354.238 0.38625 355.051 0.410156C355.811 0.455435 356.571 0.500713 357.354 0.547363C358.385 0.647668 358.385 0.647668 359.438 0.75C360.442 0.954961 361.446 1.15992 362.48 1.37109C363.291 1.66113 364.102 1.95117 364.938 2.25C365.686 2.61996 366.435 2.98992 367.207 3.37109C367.943 3.82613 368.679 4.28117 369.438 4.75C370.287 5.29785 371.136 5.8457 372.012 6.41016C372.874 7.03793 373.736 7.6657 374.625 8.3125C375.446 9.00859 376.267 9.70469 377.113 10.4219C377.88 11.1902 378.647 11.9584 379.438 12.75C380.112 13.6008 380.786 14.4516 381.48 15.3281C382.085 16.2305 382.69 17.1328 383.313 18.0625C383.86 18.9958 384.408 19.9291 384.973 20.8906C385.456 21.8342 385.939 22.7778 386.438 23.75C386.849 24.673 387.26 25.5959 387.684 26.5469C388.036 27.4595 388.387 28.3722 388.75 29.3125C389.035 30.1182 389.32 30.9238 389.613 31.7539C389.885 32.7426 390.157 33.7313 390.438 34.75C390.615 35.4604 390.792 36.1709 390.975 36.9028C391.156 37.7122 391.337 38.5216 391.523 39.3555C391.69 40.2223 391.857 41.0891 392.03 41.9822C392.164 42.8956 392.299 43.8089 392.438 44.75C392.506 45.6834 392.574 46.6167 392.644 47.5784C392.675 48.5374 392.706 49.4963 392.738 50.4844C392.748 51.4633 392.757 52.4423 392.767 53.4509C392.759 54.9602 392.759 54.9602 392.75 56.5C392.745 57.5584 392.74 58.6168 392.735 59.7073C392.719 60.7591 392.704 61.8109 392.688 62.8945C392.655 63.9085 392.623 64.9225 392.59 65.9673C392.54 66.8856 392.489 67.8039 392.438 68.75C392.364 69.4736 392.291 70.1973 392.215 70.9429C392.123 71.5637 392.032 72.1846 391.938 72.8242C391.597 74.489 391.597 74.489 391.25 76.1875C390.975 77.2458 390.701 78.3041 390.418 79.3945C389.933 81.0555 389.933 81.0555 389.438 82.75C389.255 83.4208 389.073 84.0916 388.885 84.7827C388.692 85.4977 388.5 86.2126 388.301 86.9492C388.097 87.6841 387.893 88.4189 387.682 89.176C387.478 89.9017 387.273 90.6273 387.063 91.375C386.786 92.36 386.786 92.36 386.503 93.365C386.212 94.3483 386.212 94.3483 385.914 95.3516C385.583 96.3885 385.583 96.3885 385.246 97.4463C384.846 98.5866 384.846 98.5866 384.438 99.75C384.09 100.642 383.742 101.533 383.383 102.452C382.984 103.424 382.584 104.397 382.172 105.398C381.736 106.424 381.301 107.449 380.852 108.505C380.622 109.036 380.392 109.567 380.154 110.114C379.918 110.654 379.681 111.194 379.438 111.75C379.197 112.294 378.957 112.838 378.709 113.398C378.464 113.949 378.218 114.501 377.964 115.069C377.712 115.63 377.459 116.192 377.199 116.77C376.94 117.341 376.681 117.912 376.414 118.5C376.148 119.08 375.883 119.66 375.609 120.258C375.337 120.849 375.064 121.44 374.783 122.049C374.503 122.652 374.224 123.255 373.936 123.876C373.647 124.494 373.359 125.113 373.063 125.75C372.763 126.392 372.464 127.034 372.156 127.696C371.849 128.352 371.543 129.008 371.227 129.683C370.915 130.346 370.603 131.009 370.282 131.692C369.966 132.359 369.65 133.027 369.324 133.715C368.845 134.719 368.845 134.719 368.357 135.743C368.036 136.41 367.715 137.078 367.384 137.765C366.901 138.76 366.901 138.76 366.409 139.775C366.088 140.426 365.768 141.078 365.438 141.75C365.122 142.38 364.807 143.01 364.482 143.659C364.169 144.276 363.856 144.892 363.534 145.528C363.222 146.136 362.91 146.745 362.588 147.371C362.121 148.272 362.121 148.272 361.645 149.191C361.333 149.787 361.022 150.382 360.701 150.995C360.39 151.584 360.079 152.174 359.758 152.781C359.447 153.365 359.137 153.949 358.817 154.551C358.506 155.132 358.195 155.714 357.875 156.313C357.563 156.896 357.251 157.479 356.93 158.081C356.619 158.66 356.307 159.24 355.986 159.838C355.676 160.41 355.365 160.982 355.046 161.572C354.737 162.136 354.428 162.7 354.109 163.281C353.649 164.114 353.649 164.114 353.179 164.964C352.874 165.507 352.57 166.05 352.256 166.609C351.954 167.138 351.652 167.667 351.341 168.211C351.043 168.719 350.745 169.227 350.438 169.75C349.855 170.681 349.273 171.611 348.674 172.57C348.106 173.444 347.538 174.318 346.953 175.219C346.398 176.069 345.843 176.918 345.271 177.794C344.727 178.625 344.184 179.456 343.625 180.313C343.092 181.133 342.56 181.954 342.011 182.8C341.232 184.051 341.232 184.051 340.438 185.328C339.933 186.187 339.429 187.046 338.91 187.932C338.181 189.327 338.181 189.327 337.438 190.75C337.204 191.275 336.97 191.8 336.729 192.341C336.385 193.169 336.385 193.169 336.035 194.014C335.811 194.581 335.586 195.148 335.355 195.732C335.135 196.311 334.914 196.889 334.688 197.484C334.471 198.065 334.254 198.646 334.031 199.245C333.711 200.121 333.711 200.121 333.385 201.015C333.175 201.601 332.965 202.187 332.749 202.791C332.543 203.376 332.337 203.96 332.125 204.563C331.922 205.141 331.72 205.719 331.511 206.315C331.312 206.887 331.112 207.459 330.906 208.048C330.71 208.612 330.513 209.175 330.31 209.756C330.019 210.588 330.019 210.588 329.723 211.438C329.343 212.516 328.962 213.595 328.571 214.707C328.197 215.711 327.823 216.715 327.438 217.75C327.062 218.628 326.687 219.506 326.3 220.41C325.932 221.203 325.563 221.996 325.184 222.813C324.825 223.545 324.466 224.277 324.097 225.032C323.756 225.702 323.414 226.372 323.063 227.063C322.753 227.671 322.443 228.28 322.124 228.907C321.828 229.47 321.532 230.033 321.227 230.613C320.937 231.134 320.647 231.654 320.349 232.19C320.048 232.705 319.747 233.22 319.438 233.75C319.093 234.325 318.748 234.901 318.394 235.494C317.87 236.322 317.87 236.322 317.336 237.168C316.709 238.02 316.306 238.516 315.66 239.394C314.505 240.635 315.737 239.369 314.402 240.727C313.496 241.73 314.486 240.693 313.438 241.75C312.757 242.36 312.076 242.969 311.375 243.598C310.917 243.951 310.458 244.304 309.986 244.668C309.475 245.046 308.964 245.423 308.438 245.813C307.902 246.209 307.367 246.605 306.815 247.013C306.25 247.421 305.684 247.83 305.102 248.25C304.505 248.665 303.909 249.08 303.294 249.508C302.681 249.918 302.069 250.328 301.438 250.75C300.522 251.33 300.522 251.33 299.589 251.922C298.969 252.298 298.349 252.675 297.711 253.063C297.076 253.435 296.44 253.808 295.785 254.192C295.134 254.562 294.483 254.931 293.813 255.313C292.808 255.869 292.808 255.869 291.783 256.437C290.755 256.99 290.755 256.99 289.707 257.555C289.009 257.919 288.311 258.284 287.592 258.659C286.881 259.019 286.17 259.379 285.438 259.75C284.712 260.105 283.987 260.46 283.24 260.825C282.137 261.349 282.137 261.349 281.012 261.883C280.27 262.225 279.529 262.568 278.765 262.92C278.017 263.256 277.27 263.592 276.5 263.938C275.745 264.267 274.991 264.596 274.214 264.935C273.46 265.256 272.706 265.576 271.93 265.906C270.806 266.372 270.806 266.372 269.659 266.848C268.926 267.145 268.193 267.443 267.438 267.75C266.74 268.03 266.043 268.309 265.325 268.598C264.302 268.998 264.302 268.998 263.258 269.406C262.577 269.663 261.896 269.921 261.194 270.186C260.511 270.434 259.828 270.682 259.125 270.938C258.09 271.298 258.09 271.298 257.034 271.666C256.331 271.9 255.627 272.134 254.902 272.375C253.821 272.717 253.821 272.717 252.718 273.066C251.966 273.292 251.213 273.518 250.438 273.75C249.629 273.978 248.821 274.206 247.989 274.441C247.148 274.667 246.308 274.893 245.441 275.125C244.582 275.345 243.724 275.565 242.839 275.792C241.964 276.005 241.089 276.218 240.188 276.438C238.859 276.744 238.859 276.744 237.503 277.056C236.613 277.252 235.722 277.447 234.805 277.648C233.912 277.835 233.02 278.022 232.101 278.214C231.222 278.391 230.343 278.568 229.438 278.75C228.177 279 228.177 279 226.892 279.255C226.064 279.411 225.236 279.566 224.383 279.727C223.133 279.943 223.133 279.943 221.859 280.163C221.019 280.295 220.178 280.427 219.313 280.563C218.461 280.681 217.609 280.8 216.731 280.923C215.856 281.028 214.98 281.134 214.078 281.242C212.722 281.379 212.722 281.379 211.338 281.519C210.381 281.595 209.424 281.671 208.438 281.75C207.388 281.811 206.338 281.872 205.256 281.935C203.606 282.002 203.606 282.002 201.922 282.07C200.236 282.112 200.236 282.112 198.515 282.154C197.376 282.165 196.236 282.176 195.063 282.188C193.924 282.184 192.785 282.18 191.612 282.176C190.478 282.153 189.344 282.129 188.176 282.105C187.051 282.061 185.927 282.016 184.768 281.97C183.669 281.898 182.57 281.825 181.438 281.75C180.386 281.637 179.335 281.525 178.251 281.409C176.725 281.201 176.725 281.201 175.168 280.988C173.684 280.755 173.684 280.755 172.171 280.517C170.725 280.261 170.725 280.261 169.25 280C168.301 279.818 167.352 279.636 166.374 279.448C164.998 279.166 164.998 279.166 163.594 278.879C162.715 278.688 161.835 278.498 160.93 278.301C160.107 278.119 159.285 277.937 158.438 277.75C157.705 277.595 156.973 277.44 156.219 277.281C155.198 277.063 155.198 277.063 154.156 276.84C153.174 276.619 153.174 276.619 152.173 276.394C151.538 276.244 150.904 276.093 150.25 275.938C149.315 275.699 149.315 275.699 148.361 275.455C147.732 275.284 147.104 275.114 146.457 274.938C145.495 274.661 145.495 274.661 144.514 274.379C143.829 274.171 143.144 273.964 142.438 273.75C141.658 273.504 140.879 273.258 140.076 273.004C139.25 272.734 138.425 272.465 137.574 272.188C136.31 271.763 136.31 271.763 135.021 271.33C134.168 271.035 133.316 270.741 132.438 270.438C131.166 269.985 131.166 269.985 129.87 269.524C129.032 269.218 128.195 268.913 127.332 268.598C126.508 268.29 125.684 267.982 124.834 267.665C124.043 267.363 123.252 267.061 122.438 266.75C121.346 266.326 121.346 266.326 120.232 265.894C119.195 265.48 119.195 265.48 118.137 265.059C117.466 264.782 116.795 264.505 116.104 264.22C115.451 263.941 114.798 263.662 114.125 263.375C113.483 263.092 112.841 262.808 112.179 262.516C111.228 262.079 111.228 262.079 110.258 261.633C109.317 261.181 109.317 261.181 108.356 260.72C107.407 260.24 107.407 260.24 106.438 259.75C105.449 259.22 105.449 259.22 104.44 258.679C103.777 258.308 103.113 257.937 102.43 257.555C101.775 257.176 101.12 256.798 100.446 256.408C99.8039 256.026 99.1617 255.644 98.5 255.25C97.8765 254.87 97.253 254.489 96.6106 254.097C96.0108 253.721 95.411 253.345 94.793 252.957C94.2198 252.587 93.6467 252.216 93.0562 251.834C92.522 251.477 91.9878 251.119 91.4375 250.75C90.0704 249.766 90.0704 249.766 88.6758 248.762C87.8959 248.16 87.116 247.558 86.3125 246.938C85.3496 246.154 85.3496 246.154 84.3672 245.355C83.7304 244.826 83.0936 244.296 82.4375 243.75C81.6073 243.139 80.7772 242.528 79.9219 241.898C79.102 241.189 78.2822 240.48 77.4375 239.75C76.8265 238.924 76.2155 238.097 75.5859 237.246C75.2974 236.766 75.0089 236.286 74.7117 235.792C74.4149 235.262 74.1182 234.733 73.8125 234.188C73.4855 233.612 73.1585 233.036 72.8215 232.443C72.4718 231.798 72.1221 231.153 71.7617 230.488C71.3948 229.767 71.0279 229.046 70.6499 228.303C70.2498 227.461 69.8497 226.618 69.4375 225.75C68.9794 224.705 68.5213 223.66 68.0493 222.583C67.6891 221.736 67.6891 221.736 67.3217 220.871C67.0776 220.289 66.8335 219.706 66.582 219.105C66.3373 218.515 66.0926 217.925 65.8405 217.316C65.5955 216.72 65.3505 216.123 65.0981 215.508C64.8537 214.907 64.6093 214.306 64.3575 213.687C63.9949 212.79 63.9949 212.79 63.625 211.875C63.3884 211.288 63.1519 210.701 62.9081 210.096C62.5609 209.229 62.5609 209.229 62.2065 208.345C61.981 207.779 61.7555 207.213 61.5232 206.629C61.3028 206.074 61.0825 205.518 60.8555 204.945C60.6374 204.395 60.4194 203.846 60.1947 203.279C59.986 202.749 59.7773 202.219 59.5623 201.672C59.1911 200.708 58.8199 199.744 58.4375 198.75C58.1856 198.022 57.9336 197.293 57.6741 196.542C57.4568 195.91 57.2395 195.277 57.0156 194.625C56.7864 194.009 56.5572 193.393 56.321 192.758C56.0295 192.096 55.7379 191.433 55.4375 190.75C54.9932 189.924 54.5489 189.097 54.0911 188.246C53.5673 187.337 53.0435 186.428 52.5039 185.492C51.6636 184.077 51.6636 184.077 50.8064 182.634C50.5122 182.144 50.2181 181.655 49.915 181.15C49.6131 180.647 49.3111 180.144 49 179.625C48.691 179.103 48.3821 178.581 48.0638 178.044C47.5934 177.245 47.5934 177.245 47.1135 176.431C46.7977 175.894 46.4819 175.357 46.1566 174.804C45.8394 174.264 45.5221 173.724 45.1953 173.168C44.8767 172.626 44.5581 172.085 44.2298 171.527C43.7569 170.722 43.7569 170.722 43.2744 169.9C42.8104 169.107 42.8104 169.107 42.337 168.297C41.8918 167.531 41.8918 167.531 41.4375 166.75C40.9035 165.818 40.3695 164.885 39.8193 163.924C39.3195 163.038 38.8197 162.152 38.3047 161.238C37.8171 160.362 37.3295 159.486 36.8271 158.583C36.3479 157.71 35.8687 156.837 35.375 155.938C34.6523 154.608 34.6523 154.608 33.915 153.251C33.43 152.346 32.945 151.441 32.4453 150.508C31.9571 149.581 31.4688 148.655 30.9658 147.7C30.4615 146.727 29.9571 145.753 29.4375 144.75C29.1705 144.228 28.9034 143.705 28.6283 143.167C28.3549 142.628 28.0815 142.089 27.7998 141.534C27.5232 140.985 27.2466 140.435 26.9616 139.869C26.6829 139.312 26.4043 138.754 26.1172 138.18C25.8387 137.618 25.5602 137.056 25.2733 136.477C24.9949 135.912 24.7165 135.346 24.4297 134.763C24.1517 134.194 23.8738 133.625 23.5874 133.039C23.3111 132.469 23.0347 131.899 22.75 131.313C22.4766 130.746 22.2031 130.179 21.9214 129.595C21.5156 128.747 21.5156 128.747 21.1016 127.881C20.8343 127.317 20.567 126.753 20.2916 126.172C20.0278 125.61 19.764 125.048 19.4922 124.469C19.2318 123.908 18.9714 123.348 18.7031 122.77C18.4475 122.213 18.192 121.656 17.9287 121.082C17.554 120.253 17.554 120.253 17.1718 119.407C16.9294 118.86 16.6871 118.313 16.4375 117.75C16.2055 117.211 15.9735 116.672 15.7345 116.116C15.5105 115.584 15.2865 115.052 15.0557 114.504C14.6274 113.461 14.1991 112.418 13.7578 111.344C13.1513 109.828 13.1513 109.828 12.5325 108.281C11.9595 106.811 11.9595 106.811 11.375 105.313C10.8282 103.88 10.8282 103.88 10.2703 102.418C9.92971 101.51 9.58916 100.601 9.23828 99.6641C8.92456 98.811 8.61083 97.958 8.2876 97.0791C7.8668 95.9262 7.8668 95.9262 7.4375 94.75C7.20208 94.1155 6.96667 93.4809 6.72412 92.8271C6.51997 92.2732 6.31581 91.7192 6.10547 91.1484C5.5892 89.6828 5.5892 89.6828 5.0625 88.1875C4.78148 87.2826 4.50047 86.3777 4.21094 85.4453C3.82809 84.1111 3.82809 84.1111 3.4375 82.75C3.14102 81.778 2.84453 80.8061 2.53906 79.8047C2.25805 78.7348 1.97703 77.6648 1.6875 76.5625C1.56448 76.0042 1.44145 75.4458 1.3147 74.8706C1.2044 74.2688 1.09411 73.6669 0.980469 73.0469C0.882983 72.3875 0.785498 71.7282 0.685059 71.0488C0.603364 70.2902 0.52167 69.5316 0.4375 68.75C0.375142 67.8187 0.312783 66.8873 0.248535 65.9277C0.203901 64.9049 0.159268 63.882 0.113281 62.8281C0.0859692 61.7659 0.0586572 60.7036 0.0305176 59.6091C0.0204468 58.5212 0.010376 57.4334 0 56.3125C0.00604248 55.2227 0.012085 54.1329 0.0183106 53.01C0.0432056 51.9407 0.0681006 50.8713 0.09375 49.7695C0.138867 48.7339 0.183984 47.6983 0.230469 46.6313C0.298789 45.6805 0.367109 44.7297 0.4375 43.75C0.53418 42.9629 0.630859 42.1757 0.730469 41.3647C0.910293 40.3237 0.910293 40.3237 1.09375 39.2617C1.23377 38.6198 1.3738 37.978 1.51807 37.3167C1.6771 36.7172 1.83614 36.1177 2 35.5C2.1758 34.9192 2.35159 34.3384 2.53271 33.74C2.72559 33.1787 2.91847 32.6174 3.11719 32.0391C3.32698 31.4967 3.53678 30.9543 3.75293 30.3955C3.97884 29.8525 4.20475 29.3095 4.4375 28.75C4.67888 28.1786 4.92025 27.6072 5.16895 27.0186C5.42515 26.4427 5.68135 25.8668 5.94531 25.2734C6.21553 24.7067 6.48575 24.1399 6.76416 23.5559C7.04824 23.0012 7.33231 22.4465 7.625 21.875C7.92326 21.3403 8.22151 20.8056 8.52881 20.2546C8.83899 19.7388 9.14917 19.2229 9.46875 18.6914C9.95021 17.9453 9.95021 17.9453 10.4414 17.1841C10.9345 16.4742 10.9345 16.4742 11.4375 15.75C12.1078 14.8928 12.7781 14.0355 13.4688 13.1523C14.1803 12.3802 14.8919 11.608 15.625 10.8125C16.3946 10.1138 17.1641 9.41516 17.957 8.69531C18.7756 8.05336 19.5941 7.41141 20.4375 6.75C21.287 6.12867 22.1365 5.50734 23.0117 4.86719C23.936 4.31289 24.8602 3.75859 25.8125 3.1875C26.8205 2.7273 27.8286 2.26711 28.8672 1.79297C29.425 1.60396 29.9829 1.41495 30.5576 1.22021C31.178 1.06504 31.7983 0.909873 32.4375 0.75ZM185.438 25.75C184.717 25.822 183.996 25.8941 183.254 25.9683C182.247 26.1058 182.247 26.1058 181.219 26.2461C180.567 26.3532 179.916 26.4604 179.244 26.5708C178.607 26.6918 177.969 26.8128 177.313 26.9375C176.355 27.1345 176.355 27.1345 175.379 27.3354C174.737 27.4787 174.095 27.6219 173.434 27.7695C172.786 27.925 172.139 28.0805 171.472 28.2407C170.801 28.4088 170.129 28.5768 169.438 28.75C168.713 28.9322 167.989 29.1145 167.243 29.3022C166.494 29.4951 165.744 29.688 164.973 29.8867C164.215 30.0877 163.458 30.2886 162.678 30.4956C161.918 30.7033 161.158 30.911 160.375 31.125C159.623 31.3379 158.87 31.5507 158.095 31.77C157.351 31.9864 156.607 32.2028 155.84 32.4258C155.105 32.6444 154.37 32.8631 153.613 33.0884C152.895 33.3067 152.177 33.525 151.438 33.75C150.747 33.9645 150.056 34.1789 149.344 34.3999C148.675 34.6121 148.006 34.8243 147.316 35.043C146.661 35.2558 146.006 35.4687 145.33 35.688C144.706 35.8941 144.081 36.1002 143.438 36.3125C142.875 36.498 142.313 36.6834 141.734 36.8745C140.907 37.1551 140.907 37.1551 140.063 37.4414C139.493 37.6414 138.924 37.8413 138.338 38.0474C137.711 38.2792 137.084 38.5111 136.438 38.75C135.681 39.0476 134.925 39.3452 134.146 39.6519C133.325 39.982 132.503 40.3122 131.656 40.6523C130.804 40.9964 129.952 41.3405 129.074 41.6951C128.204 42.0432 127.334 42.3913 126.438 42.75C125.578 43.082 124.718 43.414 123.832 43.7561C122.97 44.0841 122.107 44.4121 121.219 44.75C120.349 45.08 119.479 45.41 118.582 45.75C117.709 46.08 116.837 46.41 115.938 46.75C115.065 47.08 114.192 47.41 113.293 47.75C112.423 48.08 111.553 48.41 110.656 48.75C109.796 49.077 108.937 49.404 108.051 49.741C106.757 50.2404 106.757 50.2404 105.438 50.75C104.544 51.1068 103.651 51.4637 102.73 51.8313C101.86 52.1822 100.99 52.533 100.094 52.8945C99.3184 53.2101 98.543 53.5257 97.7441 53.8508C96.9829 54.1476 96.2218 54.4443 95.4375 54.75C94.1329 55.194 94.1329 55.194 92.802 55.647C92.0217 55.9078 91.2414 56.1687 90.4375 56.4375C89.6164 56.7688 88.7952 57.1001 87.9492 57.4414C87.1204 57.8732 86.2915 58.3051 85.4375 58.75C84.5777 59.3778 83.7179 60.0055 82.832 60.6523C81.98 61.3858 81.1279 62.1193 80.25 62.875C79.425 63.6678 78.6 64.4605 77.75 65.2773C76.9869 66.0933 76.2237 66.9093 75.4375 67.75C74.7981 68.5144 74.1587 69.2788 73.5 70.0664C72.9225 70.8489 72.345 71.6313 71.75 72.4375C71.2034 73.2715 70.6569 74.1055 70.0938 74.9648C69.5472 75.8839 69.0006 76.803 68.4375 77.75C68.1371 78.2722 67.8368 78.7945 67.5273 79.3325C67.0652 80.1599 67.0652 80.1599 66.5938 81.0039C66.134 81.8576 66.134 81.8576 65.665 82.7285C65.3631 83.3131 65.0611 83.8977 64.75 84.5C64.4583 85.0962 64.1667 85.6924 63.8662 86.3066C63.5855 86.908 63.3048 87.5093 63.0156 88.1289C62.7469 88.7323 62.4781 89.3358 62.2012 89.9575C61.9492 90.549 61.6971 91.1406 61.4375 91.75C61.2087 92.3067 60.9799 92.8634 60.7441 93.437C60.5347 93.9824 60.3252 94.5279 60.1094 95.0898C59.9175 95.6389 59.7257 96.188 59.5281 96.7537C59.3538 97.3093 59.1795 97.865 59 98.4375C58.8418 99.0054 58.6837 99.5733 58.5208 100.158C58.3811 100.746 58.2415 101.333 58.0977 101.938C57.9779 102.547 57.8582 103.157 57.7349 103.785C57.6367 104.434 57.5386 105.082 57.4375 105.75C57.3639 106.463 57.2902 107.176 57.2144 107.91C57.163 108.662 57.1116 109.413 57.0586 110.188C57.0284 110.962 56.9982 111.736 56.967 112.533C56.9573 113.327 56.9475 114.12 56.9375 114.938C56.9464 115.743 56.9554 116.549 56.9646 117.379C56.9943 118.191 57.0241 119.003 57.0547 119.84C57.1315 121.064 57.1315 121.064 57.21 122.312C57.285 123.117 57.3601 123.921 57.4375 124.75C57.5927 125.905 57.5927 125.905 57.751 127.083C57.877 127.84 58.003 128.598 58.1328 129.379C58.2777 130.139 58.4225 130.9 58.5718 131.683C58.8147 132.83 58.8147 132.83 59.0625 134C59.3267 135.158 59.3267 135.158 59.5962 136.34C59.8812 137.523 59.8812 137.523 60.1719 138.73C60.3749 139.539 60.5779 140.348 60.7871 141.181C61.1091 142.453 61.1091 142.453 61.4375 143.75C61.6624 144.669 61.8874 145.587 62.1191 146.534C62.3531 147.488 62.5871 148.442 62.8281 149.426C63.0693 150.392 63.3104 151.359 63.5588 152.355C63.8075 153.331 64.0563 154.307 64.3125 155.313C64.5709 156.294 64.8293 157.275 65.0955 158.286C65.3566 159.252 65.6177 160.219 65.8867 161.215C66.1476 162.158 66.4085 163.102 66.6772 164.074C66.9281 164.957 67.179 165.84 67.4375 166.75C67.7732 167.891 67.7732 167.891 68.1157 169.055C68.3315 169.76 68.5472 170.465 68.7695 171.191C69.1004 172.231 69.1004 172.231 69.438 173.292C69.6647 173.98 69.8914 174.667 70.125 175.375C70.3594 176.066 70.5939 176.756 70.8354 177.468C71.0896 178.195 71.3437 178.922 71.6055 179.672C72.0239 180.841 72.0239 180.841 72.4507 182.033C72.7763 182.93 73.102 183.826 73.4375 184.75C73.6343 185.291 73.831 185.831 74.0338 186.388C74.2464 186.971 74.4591 187.554 74.6782 188.154C74.9007 188.761 75.1231 189.368 75.3522 189.994C75.5828 190.62 75.8133 191.246 76.0508 191.891C76.2863 192.525 76.5217 193.159 76.7643 193.812C77.003 194.452 77.2417 195.092 77.4875 195.751C77.7283 196.394 77.969 197.037 78.2169 197.7C78.4547 198.335 78.6925 198.97 78.9375 199.625C79.1649 200.238 79.3923 200.85 79.6266 201.481C79.8499 202.081 80.0733 202.681 80.3035 203.299C80.5266 203.892 80.7498 204.485 80.9797 205.095C81.203 205.68 81.4262 206.265 81.6563 206.867C81.993 207.734 81.993 207.734 82.3366 208.619C82.5636 209.19 82.7905 209.761 83.0244 210.349C83.2542 210.912 83.484 211.475 83.7208 212.055C83.9573 212.615 84.1938 213.174 84.4375 213.75C84.6872 214.313 84.9369 214.877 85.1942 215.457C85.4495 216.012 85.7048 216.567 85.9678 217.139C86.2261 217.68 86.4844 218.22 86.7506 218.777C87.0031 219.294 87.2555 219.811 87.5156 220.344C87.9736 221.276 88.4315 222.209 88.9033 223.17C89.4096 224.021 89.9159 224.873 90.4375 225.75C91.145 226.58 91.8526 227.41 92.5815 228.265C93.2765 228.962 93.9715 229.658 94.6875 230.375C95.5512 231.088 96.4148 231.801 97.3047 232.535C97.7942 232.894 98.2837 233.252 98.7881 233.622C99.6045 234.18 99.6045 234.18 100.438 234.75C101.374 235.357 101.374 235.357 102.329 235.976C103.007 236.395 103.685 236.814 104.383 237.246C105.098 237.669 105.812 238.092 106.549 238.528C107.296 238.952 108.043 239.376 108.813 239.813C109.583 240.232 110.354 240.652 111.149 241.084C111.939 241.497 112.729 241.91 113.543 242.336C114.349 242.742 115.155 243.147 115.986 243.565C116.795 243.956 117.604 244.347 118.438 244.75C119.23 245.115 120.022 245.48 120.838 245.856C121.63 246.205 122.422 246.554 123.238 246.914C124.039 247.253 124.84 247.591 125.665 247.94C126.477 248.269 127.289 248.598 128.125 248.938C128.954 249.26 129.782 249.582 130.636 249.913C131.479 250.229 132.322 250.545 133.191 250.871C134.049 251.182 134.906 251.492 135.79 251.812C136.663 252.122 137.537 252.431 138.438 252.75C139.777 253.224 139.777 253.224 141.144 253.708C142.054 254.022 142.965 254.336 143.902 254.66C144.829 254.968 145.756 255.276 146.711 255.593C148.122 256.042 148.122 256.042 149.563 256.5C150.988 256.932 150.988 256.932 152.441 257.372C153.408 257.648 154.375 257.923 155.371 258.207C156.357 258.47 157.343 258.732 158.359 259.002C159.375 259.249 160.391 259.496 161.438 259.75C162.504 259.977 163.57 260.205 164.668 260.439C165.759 260.649 166.849 260.858 167.973 261.074C169.07 261.267 170.166 261.459 171.297 261.657C172.395 261.832 173.493 262.007 174.625 262.188C175.718 262.346 176.81 262.505 177.936 262.669C179.011 262.809 180.087 262.949 181.195 263.094C182.248 263.214 183.3 263.334 184.384 263.457C185.392 263.554 186.399 263.65 187.438 263.75C188.368 263.818 189.298 263.887 190.257 263.957C191.139 264.002 192.021 264.047 192.93 264.094C193.78 264.119 194.63 264.144 195.506 264.169C196.74 264.178 196.74 264.178 198 264.188C198.808 264.177 199.617 264.167 200.449 264.157C201.633 264.116 201.633 264.116 202.84 264.074C203.608 264.03 204.376 263.985 205.167 263.939C205.917 263.877 206.666 263.814 207.438 263.75C208.532 263.627 208.532 263.627 209.649 263.502C210.364 263.405 211.079 263.307 211.816 263.207C212.521 263.097 213.226 262.986 213.952 262.872C214.648 262.749 215.345 262.627 216.063 262.5C216.753 262.365 217.444 262.23 218.156 262.091C218.844 261.947 219.533 261.804 220.242 261.656C221.276 261.432 221.276 261.432 222.331 261.203C223.374 260.979 223.374 260.979 224.438 260.75C225.146 260.611 225.854 260.472 226.583 260.328C227.66 260.119 227.66 260.119 228.758 259.906C229.848 259.688 229.848 259.688 230.961 259.465C231.696 259.311 232.43 259.158 233.188 259C233.925 258.836 234.662 258.673 235.422 258.504C236.547 258.239 236.547 258.239 237.695 257.969C238.463 257.778 239.23 257.587 240.021 257.391C240.818 257.179 241.616 256.968 242.438 256.75C243.289 256.508 244.141 256.265 245.019 256.016C246.336 255.621 246.336 255.621 247.68 255.219C249.01 254.802 249.01 254.802 250.367 254.378C251.701 253.943 251.701 253.943 253.063 253.5C253.946 253.203 254.829 252.907 255.739 252.601C256.609 252.296 257.479 251.99 258.375 251.676C259.227 251.362 260.079 251.048 260.957 250.725C262.185 250.242 262.185 250.242 263.438 249.75C264.58 249.254 264.58 249.254 265.746 248.748C266.469 248.412 267.192 248.076 267.938 247.73C268.631 247.394 269.325 247.057 270.04 246.71C270.708 246.372 271.375 246.035 272.063 245.688C272.711 245.35 273.36 245.012 274.028 244.663C274.964 244.165 274.964 244.165 275.918 243.656C276.514 243.333 277.11 243.009 277.724 242.676C278.29 242.37 278.855 242.065 279.438 241.75C280.465 241.224 281.492 240.698 282.551 240.156C283.483 239.672 284.415 239.187 285.375 238.688C286.232 238.212 287.089 237.736 287.973 237.246C288.786 236.752 289.599 236.259 290.438 235.75C291.261 235.184 292.085 234.618 292.934 234.035C293.719 233.446 294.504 232.857 295.313 232.25C296.33 231.461 296.33 231.461 297.367 230.656C298.392 229.713 298.392 229.713 299.438 228.75C300.058 228.091 300.058 228.091 300.691 227.419C301.121 226.928 301.55 226.436 301.992 225.93C302.413 225.409 302.834 224.889 303.268 224.353C303.654 223.824 304.04 223.295 304.438 222.75C305 221.752 305.562 220.755 306.141 219.727C306.394 219.194 306.647 218.661 306.908 218.112C307.165 217.539 307.422 216.966 307.688 216.375C307.976 215.741 308.265 215.106 308.563 214.452C309.021 213.422 309.021 213.422 309.488 212.371C309.802 211.637 310.116 210.904 310.44 210.148C310.769 209.357 311.098 208.565 311.438 207.75C311.964 206.453 311.964 206.453 312.501 205.129C312.866 204.211 313.23 203.293 313.605 202.348C313.977 201.39 314.349 200.432 314.732 199.445C315.109 198.452 315.486 197.46 315.875 196.438C316.254 195.42 316.633 194.403 317.024 193.354C317.403 192.314 317.781 191.275 318.172 190.203C318.549 189.144 318.926 188.085 319.314 186.994C319.685 185.924 320.056 184.853 320.438 183.75C320.795 182.677 321.153 181.604 321.521 180.498C321.87 179.421 322.219 178.344 322.578 177.234C322.92 176.154 323.261 175.073 323.613 173.96C323.947 172.88 324.281 171.8 324.625 170.688C325.115 169.074 325.115 169.074 325.615 167.428C325.934 166.358 326.253 165.287 326.582 164.184C326.892 163.12 327.202 162.056 327.522 160.96C327.975 159.371 327.975 159.371 328.438 157.75C328.733 156.687 329.029 155.623 329.333 154.528C329.619 153.478 329.905 152.429 330.199 151.348C330.61 149.808 330.61 149.808 331.029 148.237C331.287 147.251 331.546 146.265 331.813 145.25C332.171 143.881 332.171 143.881 332.536 142.484C332.759 141.613 332.981 140.741 333.211 139.844C333.419 138.999 333.626 138.155 333.84 137.285C334.037 136.448 334.234 135.612 334.438 134.75C334.633 133.884 334.829 133.018 335.031 132.125C335.211 131.272 335.392 130.418 335.578 129.539C335.816 128.307 335.816 128.307 336.058 127.05C336.183 126.291 336.309 125.532 336.438 124.75C336.51 124.112 336.582 123.474 336.657 122.817C336.715 121.945 336.715 121.945 336.773 121.055C336.793 119.357 336.793 119.357 336.813 117.625C336.806 116.68 336.806 116.68 336.799 115.717C336.78 115.064 336.761 114.411 336.742 113.738C336.684 112.753 336.684 112.753 336.624 111.749C336.562 111.089 336.501 110.43 336.438 109.75C336.348 109.097 336.258 108.444 336.165 107.771C335.994 106.792 335.994 106.792 335.82 105.793C335.685 105.137 335.549 104.481 335.409 103.805C335.254 103.148 335.098 102.49 334.938 101.813C334.766 101.154 334.595 100.496 334.419 99.8176C334.227 99.1559 334.034 98.4942 333.836 97.8125C333.62 97.1473 333.405 96.4822 333.183 95.7969C332.937 95.1214 332.691 94.4459 332.438 93.75C332.148 93.0513 331.858 92.3527 331.56 91.6328C331.243 90.929 330.927 90.2252 330.602 89.5C330.271 88.8038 329.94 88.1077 329.6 87.3904C329.257 86.7047 328.915 86.019 328.563 85.3125C328.213 84.6403 327.863 83.9682 327.502 83.2756C326.979 82.3058 326.979 82.3058 326.445 81.3164C326.103 80.7017 325.76 80.087 325.407 79.4536C325.087 78.8914 324.767 78.3292 324.438 77.75C323.919 76.8515 323.401 75.953 322.867 75.0273C322.159 73.9001 322.159 73.9001 321.438 72.75C320.958 72.0745 320.478 71.3991 319.984 70.7031C319.474 70.0586 318.963 69.4141 318.438 68.75C317.845 68.0436 317.252 67.3372 316.641 66.6094C315.996 65.9133 315.352 65.2172 314.688 64.5C313.995 63.8464 313.303 63.1929 312.59 62.5195C311.88 61.9356 311.169 61.3516 310.438 60.75C309.779 60.3001 309.12 59.8502 308.441 59.3867C307.718 58.991 306.995 58.5952 306.25 58.1875C304.97 57.6016 304.97 57.6016 303.664 57.0039C302.067 56.3832 302.067 56.3832 300.438 55.75C299.767 55.5152 299.096 55.2805 298.405 55.0386C297.661 54.7874 296.916 54.5362 296.148 54.2773C295.344 54.0109 294.539 53.7445 293.71 53.47C292.857 53.1911 292.004 52.9123 291.125 52.625C290.247 52.3416 289.37 52.0583 288.465 51.7664C287.538 51.4645 286.611 51.1626 285.656 50.8516C284.181 50.3628 284.181 50.3628 282.676 49.8643C281.607 49.4966 280.539 49.1288 279.438 48.75C278.845 48.5357 278.253 48.3213 277.643 48.1005C276.715 47.7583 276.715 47.7583 275.77 47.4092C275.137 47.1731 274.504 46.937 273.853 46.6938C273.21 46.4519 272.568 46.2101 271.906 45.9609C271.262 45.7174 270.618 45.4739 269.955 45.223C269.31 44.9781 268.665 44.7332 268.001 44.481C267.358 44.2356 266.715 43.9902 266.053 43.7374C265.417 43.494 264.78 43.2507 264.125 43C263.502 42.7617 262.879 42.5233 262.237 42.2778C261.626 42.0441 261.016 41.8105 260.387 41.5698C259.792 41.3417 259.198 41.1135 258.585 40.8784C258.004 40.6556 257.423 40.4327 256.824 40.2031C256.252 39.984 255.68 39.7648 255.09 39.5391C254.542 39.3288 253.993 39.1185 253.428 38.9019C252.441 38.5217 251.454 38.1416 250.438 37.75C249.36 37.321 249.36 37.321 248.26 36.8833C247.333 36.5195 247.333 36.5195 246.387 36.1484C245.779 35.9216 245.171 35.6947 244.545 35.4609C243.85 35.2263 243.154 34.9917 242.438 34.75C241.474 34.4638 240.511 34.1777 239.519 33.8828C238.443 33.5786 237.367 33.2744 236.258 32.9609C235.165 32.6593 234.072 32.3577 232.945 32.0469C232.39 31.8954 231.835 31.7439 231.263 31.5879C230.421 31.3588 230.421 31.3588 229.563 31.125C228.991 30.9687 228.419 30.8124 227.83 30.6514C227.262 30.4957 226.694 30.3401 226.109 30.1797C225.024 29.8806 223.939 29.5816 222.82 29.2734C221.834 29.0045 220.848 28.7356 219.833 28.4585C219.042 28.2247 218.252 27.9909 217.438 27.75C216.447 27.255 216.447 27.255 215.438 26.75C214.883 26.6456 214.329 26.5412 213.758 26.4336C213.033 26.3524 212.309 26.2712 211.563 26.1875C210.67 26.1089 209.778 26.0302 208.859 25.9492C207.73 25.8835 206.601 25.8177 205.438 25.75C204.721 25.7199 204.005 25.6897 203.268 25.6587C202.483 25.6334 201.699 25.6081 200.891 25.582C200.068 25.5643 199.245 25.5466 198.397 25.5283C197.544 25.519 196.691 25.5096 195.813 25.5C194.506 25.4995 194.506 25.4995 193.173 25.499C192.301 25.5109 191.429 25.5229 190.531 25.5352C189.669 25.5611 188.806 25.587 187.918 25.6138C187.099 25.6587 186.281 25.7037 185.438 25.75Z" sodipodi:nodetypes="cccccccccccccccccccccccccccccccccccccccccccccccccccccccccccccccccccccccccccccccccccccccccccccccccccccccccccccccccccccccccccccccccccccccccccccccccccccccccccccccccccccccccccccccccccccccccccccccccccccccccccccccccccccccccccccccccccccccccccccccccccccccccccccccccccccccccccccccccccccccccccccccccccccccccccccccccccccccccccccccccccccccccccccccccccccccccccccccccccccccccccccccccccccccccccccccccccccccccccccccccccccccccccccccccccccccccccccccccccccccccccccccccccccccccccccccccccccccccccccccccccccccccccccccccccccccccccccccccccccccccccccccccccccccccccccccccccccccccccccccccccccccccccccccccccccccccccccccccccccccccccccccccccccccccccccccccccccccccccccccccccccccccccccccccccccccccccccccccccccccccccccccccccccccccccccccccccccccccccccccccccccccccccccccccccccccccccccccccccccccccccccccccccccccccccccccccccccccccccccccccccccccccccc"/><path id="shape3" transform="matrix(0.942602954024725 -0.000485746891798727 0.000485746891798728 0.942602954024725 231.765860487841 269.859519171686)" fill="#be324b" stroke-opacity="0" stroke="#000000" stroke-width="0" stroke-linecap="square" stroke-linejoin="bevel" d="M5.56641 0.207031C6.60281 0.138711 7.63922 0.0703906 8.70703 0C9.32328 0.0185303 9.93954 0.0370605 10.5745 0.0561523C11.2318 0.105942 11.8891 0.155732 12.5664 0.207031C13.5689 0.326189 13.5689 0.326189 14.5916 0.447754C15.6368 0.601233 15.6368 0.601233 16.7031 0.757813C17.4356 0.877856 18.168 0.9979 18.9226 1.12158C19.6919 1.25291 20.4613 1.38423 21.2539 1.51953C22.4765 1.72038 22.4765 1.72038 23.7239 1.92529C24.5691 2.06338 25.4143 2.20147 26.2852 2.34375C27.5807 2.55717 27.5807 2.55717 28.9023 2.7749C29.7815 2.9175 30.6606 3.06011 31.5664 3.20703C32.4584 3.34577 33.3505 3.4845 34.2695 3.62744C35.1616 3.76328 36.0536 3.89911 36.9727 4.03906C37.8561 4.17208 38.7395 4.30509 39.6497 4.44214C40.9388 4.63514 40.9388 4.63514 42.2539 4.83203C43.0663 4.9549 43.8786 5.07776 44.7156 5.20435C45.885 5.3797 45.885 5.3797 47.0781 5.55859C47.8404 5.66913 48.6026 5.77967 49.3879 5.89355C50.4663 6.04873 50.4663 6.04873 51.5664 6.20703C52.1944 6.30274 52.8224 6.39846 53.4695 6.49707C54.0867 6.5844 54.7039 6.67174 55.3398 6.76172C55.9946 6.83955 56.6494 6.91737 57.324 6.99756C58.064 7.06668 58.804 7.13581 59.5664 7.20703C60.4708 7.26971 61.3751 7.33239 62.3069 7.39697C63.3297 7.44773 64.3525 7.49849 65.4063 7.55078C66.5284 7.58357 67.6505 7.61636 68.8066 7.65015C69.4057 7.66069 70.0047 7.67123 70.6218 7.6821C71.5535 7.69444 71.5535 7.69444 72.5039 7.70703C73.1413 7.71615 73.7786 7.72526 74.4353 7.73465C75.0967 7.7398 75.758 7.74494 76.4395 7.75024C77.4767 7.74655 77.4767 7.74655 78.5348 7.74278C79.2555 7.73227 79.9762 7.72176 80.7188 7.71094C81.466 7.69233 82.2132 7.67373 82.983 7.65456C83.7683 7.62305 84.5537 7.59154 85.3628 7.55908C86.6047 7.48914 86.6047 7.48914 87.8718 7.41779C88.761 7.34824 89.6502 7.27869 90.5664 7.20703C91.5497 7.10139 92.5331 6.99575 93.5462 6.8869C94.5856 6.75906 95.6249 6.63122 96.6958 6.49951C98.3037 6.28692 98.3037 6.28692 99.944 6.07004C101.584 5.84201 101.584 5.84201 103.258 5.60938C104.902 5.37615 104.902 5.37615 106.579 5.13821C107.679 4.97788 108.779 4.81754 109.912 4.65234C111.013 4.48767 112.113 4.32299 113.247 4.15332C114.342 3.98542 115.438 3.81752 116.566 3.64453C117.654 3.47292 118.742 3.30132 119.863 3.12451C120.93 2.95452 121.998 2.78452 123.097 2.60938C124.653 2.36557 124.653 2.36557 126.239 2.11684C127.732 1.88111 127.732 1.88111 129.254 1.64063C130.191 1.48231 131.129 1.32399 132.094 1.16087C133.417 0.950603 133.417 0.950603 134.766 0.736084C135.588 0.622934 136.411 0.509783 137.258 0.393204C138.02 0.331767 138.782 0.27033 139.566 0.207031C140.27 0.2403 140.973 0.273569 141.698 0.307846C142.325 0.389787 142.953 0.471728 143.6 0.556152C144.579 0.770942 145.558 0.985732 146.566 1.20703C147.153 1.53059 147.739 1.85414 148.344 2.1875C148.727 2.58582 149.109 2.98414 149.504 3.39453C150.185 4.32266 150.865 5.25078 151.566 6.20703C151.773 7.17641 151.979 8.14578 152.191 9.14453C151.985 10.1552 151.779 11.1658 151.566 12.207C151.277 12.7149 150.988 13.2228 150.691 13.7461C150.113 14.5002 150.113 14.5002 149.523 15.2695C149.066 15.7909 148.609 16.3122 148.138 16.8494C147.619 17.2974 147.101 17.7454 146.566 18.207C146.014 18.4636 145.462 18.7202 144.894 18.9846C144.282 19.1521 143.67 19.3196 143.039 19.4922C142.349 19.6279 141.659 19.7635 140.949 19.9033C140.183 20.0242 139.418 20.145 138.629 20.2695C137.791 20.4175 136.953 20.5654 136.09 20.7178C134.692 20.9542 134.692 20.9542 133.266 21.1953C132.232 21.3534 131.199 21.5115 130.134 21.6743C129.568 21.7586 129.002 21.8429 128.419 21.9297C127.808 22.0213 127.196 22.1128 126.566 22.207C125.551 22.3636 125.551 22.3636 124.514 22.5234C123.794 22.6347 123.073 22.7461 122.331 22.8608C121.58 22.9756 120.83 23.0903 120.057 23.2086C119.283 23.3254 118.508 23.4422 117.711 23.5625C116.531 23.737 116.531 23.737 115.328 23.915C114.527 24.0309 113.727 24.1467 112.902 24.2661C111.682 24.4387 111.682 24.4387 110.437 24.6148C109.202 24.7842 109.202 24.7842 107.941 24.957C107.107 25.0664 106.273 25.1758 105.413 25.2885C104.577 25.3942 103.741 25.5 102.879 25.6089C102.05 25.7105 101.22 25.812 100.365 25.9167C99.1325 26.0623 99.1325 26.0623 97.875 26.2109C97.0602 26.3037 96.2454 26.3964 95.4059 26.492C94.6144 26.5786 93.8229 26.6652 93.0073 26.7544C92.2472 26.8338 91.487 26.9132 90.7038 26.9949C89.6458 27.0999 89.6458 27.0999 88.5664 27.207C87.9552 27.2641 87.3439 27.3212 86.7142 27.3801C86.1577 27.4272 85.6012 27.4744 85.0278 27.5229C83.4865 27.6276 83.4865 27.6276 81.9141 27.7344C80.9264 27.7743 79.9387 27.8141 78.9211 27.8552C77.9585 27.8682 76.9958 27.8812 76.0039 27.8945C75.0367 27.8888 74.0695 27.8831 73.073 27.8772C72.0447 27.8417 71.0165 27.8061 69.957 27.7695C68.8426 27.6999 67.7282 27.6303 66.5801 27.5586C65.9569 27.5078 65.3337 27.4571 64.6917 27.4048C63.6397 27.3069 63.6397 27.3069 62.5664 27.207C61.7349 27.1211 60.9034 27.0353 60.0466 26.9468C59.1386 26.847 58.2305 26.7473 57.2949 26.6445C56.3429 26.5352 55.3908 26.4258 54.4099 26.3132C53.4251 26.1956 52.4404 26.0781 51.4258 25.957C50.4301 25.8339 49.4344 25.7108 48.4086 25.5839C47.4031 25.4561 46.3976 25.3283 45.3616 25.1965C44.3497 25.0648 43.3379 24.933 42.2954 24.7973C41.2917 24.6644 40.288 24.5315 39.2539 24.3945C38.2757 24.2643 37.2976 24.134 36.2898 23.9998C34.8526 23.805 34.8526 23.805 33.3865 23.6062C32.4482 23.4758 31.5099 23.3454 30.5432 23.211C29.6266 23.0795 28.71 22.948 27.7656 22.8125C26.8684 22.678 25.9712 22.5434 25.0467 22.4048C24.181 22.2704 23.3153 22.136 22.4233 21.9976C21.5964 21.8646 20.7694 21.7316 19.9174 21.5947C19.1416 21.4667 18.3658 21.3388 17.5664 21.207C16.8615 21.0907 16.1565 20.9744 15.4302 20.8546C14.7812 20.7422 14.1321 20.6299 13.4634 20.5142C12.8611 20.3974 12.2589 20.2806 11.6384 20.1602C11.0848 20.0481 10.5313 19.9359 9.96094 19.8203C8.99648 19.6286 8.03202 19.437 7.03833 19.2395C6.2226 18.8988 5.40686 18.5581 4.56641 18.207C3.80683 17.3913 3.04725 16.5756 2.26465 15.7351C1.70423 14.9008 1.14381 14.0666 0.566406 13.207C0.379492 12.5264 0.192578 11.8458 0 11.1445C0.00128906 10.5052 0.00257813 9.86578 0.00390625 9.20703C0.0425781 8.52641 0.08125 7.84578 0.121094 7.14453C0.268047 6.50516 0.415 5.86578 0.566406 5.20703C1.0034 4.40266 1.0034 4.40266 1.44922 3.58203C1.83852 3.12828 2.22781 2.67453 2.62891 2.20703C3.01176 1.81516 3.39461 1.42328 3.78906 1.01953C4.37559 0.751406 4.96211 0.483281 5.56641 0.207031Z" sodipodi:nodetypes="cccccccccccccccccccccccccccccccccccccccccccccccccccccccccccccccccccccccccccccccccccccccccccccccccccccccccccccccccccccccccccccccccccc"/><path id="shape4" transform="matrix(0.942602954024725 -0.000485746891798727 0.000485746891798728 0.942602954024725 231.691660457438 233.049015234769)" fill="#bd324b" stroke-opacity="0" stroke="#000000" stroke-width="0" stroke-linecap="square" stroke-linejoin="bevel" d="M5.625 0.259033C6.33737 0.173552 7.04974 0.0880713 7.78369 0C8.99291 0.0102722 8.99291 0.0102722 10.2266 0.0207519C11.561 0.0485474 11.561 0.0485474 12.9224 0.0769043C14.2602 0.167058 14.2602 0.167058 15.625 0.259033C16.7946 0.424597 16.7946 0.424597 17.9878 0.593506C19.1231 0.80886 19.1231 0.80886 20.2813 1.02856C21.4526 1.27655 21.4526 1.27655 22.6477 1.52954C23.4652 1.7084 24.2827 1.88726 25.125 2.07153C26.4624 2.34175 26.4624 2.34175 27.8269 2.61743C28.7645 2.79951 29.702 2.98159 30.668 3.16919C32.1189 3.444 32.1189 3.444 33.5991 3.72437C34.5977 3.90081 35.5962 4.07725 36.625 4.25903C37.6532 4.41872 38.6814 4.5784 39.7407 4.74292C40.7918 4.89132 41.8429 5.03973 42.9258 5.19263C43.9925 5.33201 45.0592 5.47139 46.1582 5.61499C47.2404 5.74502 48.3225 5.87506 49.4375 6.00903C50.539 6.13133 51.6405 6.25363 52.7754 6.37964C53.8769 6.49066 54.9784 6.60168 56.1133 6.71606C57.2059 6.81355 58.2986 6.91104 59.4243 7.01147C60.4805 7.09317 61.5368 7.17486 62.625 7.25903C63.5974 7.32139 64.5699 7.38375 65.5718 7.448C66.511 7.49263 67.4503 7.53727 68.418 7.58325C69.3579 7.61024 70.2979 7.63723 71.2664 7.66504C72.2097 7.67543 73.1531 7.68583 74.125 7.69653C75.0754 7.69339 76.0259 7.69025 77.0051 7.68701C77.9934 7.66437 78.9817 7.64173 80 7.61841C81.039 7.57394 82.078 7.52946 83.1484 7.48364C84.2957 7.40952 85.443 7.3354 86.625 7.25903C87.6116 7.17722 87.6116 7.17722 88.6182 7.09375C89.6618 6.99864 89.6618 6.99864 90.7266 6.90161C91.8025 6.79707 91.8025 6.79707 92.9003 6.69041C93.6344 6.61509 94.3686 6.53977 95.125 6.46216C95.8672 6.38236 96.6094 6.30257 97.3741 6.22035C98.4932 6.09557 98.4932 6.09557 99.6348 5.96826C100.755 5.83933 100.755 5.83933 101.898 5.70779C102.633 5.62158 103.368 5.53536 104.125 5.44653C105.182 5.32265 105.182 5.32265 106.26 5.19626C107.295 5.07252 107.295 5.07252 108.35 4.94629C109.033 4.86154 109.715 4.77679 110.419 4.68947C111.095 4.60285 111.772 4.51624 112.469 4.427C113.14 4.33914 113.812 4.25128 114.504 4.16075C115.509 4.02257 115.509 4.02257 116.535 3.88159C117.54 3.73558 117.54 3.73558 118.565 3.58661C119.245 3.47851 119.925 3.37041 120.625 3.25903C121.687 3.06595 121.687 3.06595 122.771 2.86896C123.841 2.663 123.841 2.663 124.934 2.45288C125.641 2.31538 126.349 2.17788 127.079 2.03621C128.107 1.83133 128.107 1.83133 129.156 1.62231C129.789 1.48778 130.421 1.35325 131.073 1.21465C131.684 1.09048 132.294 0.96631 132.924 0.838379C133.824 0.675912 133.824 0.675912 134.742 0.510162C135.363 0.42729 135.985 0.344417 136.625 0.259033C137.332 0.216041 138.039 0.173049 138.768 0.128754C139.829 0.11046 139.829 0.11046 140.912 0.0917969C141.554 0.0888713 142.196 0.0859457 142.857 0.0829315C143.732 0.170102 143.732 0.170102 144.625 0.259033C145.574 0.692158 146.523 1.12528 147.5 1.57153C148.201 2.12841 148.903 2.68528 149.625 3.25903C150.058 3.67153 150.491 4.08403 150.938 4.50903C151.164 5.08653 151.391 5.66403 151.625 6.25903C151.79 7.37278 151.955 8.48653 152.125 9.63403C152.107 10.2475 152.088 10.8611 152.069 11.4932C151.923 12.0759 151.776 12.6586 151.625 13.259C151.254 13.7187 150.883 14.1783 150.501 14.6519C150.011 15.0598 149.521 15.4677 149.016 15.8879C148.468 16.3127 147.92 16.7374 147.355 17.175C146.784 17.5328 146.213 17.8905 145.625 18.259C144.578 18.5903 143.532 18.9216 142.453 19.2629C141.885 19.3616 141.317 19.4603 140.731 19.562C140.119 19.6477 139.506 19.7333 138.875 19.8215C138.204 19.931 137.533 20.0405 136.841 20.1533C135.746 20.3294 135.746 20.3294 134.629 20.509C133.843 20.6263 133.057 20.7436 132.247 20.8645C131.381 20.9947 130.516 21.1249 129.625 21.259C128.151 21.4969 128.151 21.4969 126.648 21.7395C125.598 21.9109 124.547 22.0824 123.465 22.259C122.38 22.4339 121.295 22.6089 120.177 22.7891C119.067 22.9648 117.956 23.1405 116.813 23.3215C115.129 23.5783 115.129 23.5783 113.411 23.8403C112.298 24.0056 111.185 24.1708 110.039 24.3411C108.949 24.4991 107.859 24.6572 106.735 24.8201C105.196 25.0374 105.196 25.0374 103.625 25.259C102.727 25.382 101.83 25.5049 100.905 25.6316C100.078 25.7394 99.2508 25.8472 98.3984 25.9583C97.6074 26.0545 96.8164 26.1508 96.0015 26.25C95.2379 26.3355 94.4742 26.421 93.6875 26.509C92.9303 26.5861 92.1732 26.6632 91.3931 26.7427C90.2704 26.8436 90.2704 26.8436 89.125 26.9465C88.3851 27.0033 87.6452 27.06 86.8828 27.1184C85.7652 27.188 85.7652 27.188 84.625 27.259C83.4726 27.3132 83.4726 27.3132 82.2969 27.3684C81.5183 27.3942 80.7397 27.42 79.9375 27.4465C79.1558 27.4621 78.374 27.4776 77.5686 27.4937C76.7828 27.4987 75.9971 27.5038 75.1875 27.509C74.3985 27.5032 73.6095 27.4973 72.7966 27.4912C72.0065 27.4752 71.2164 27.4591 70.4023 27.4426C69.6107 27.4167 68.8191 27.3907 68.0034 27.364C67.2185 27.3294 66.4337 27.2947 65.625 27.259C64.862 27.2179 64.0991 27.1769 63.313 27.1345C62.551 27.0841 61.789 27.0337 61.0039 26.9817C60.2264 26.9195 59.449 26.8573 58.6479 26.7932C57.8566 26.7201 57.0653 26.6469 56.25 26.5715C55.4509 26.4894 54.6519 26.4072 53.8286 26.3225C52.9919 26.2255 52.1551 26.1285 51.293 26.0286C50.4066 25.9146 49.5202 25.8007 48.6069 25.6833C47.6229 25.5433 46.6389 25.4033 45.625 25.259C44.7757 25.1282 44.7757 25.1282 43.9092 24.9948C43.3096 24.8994 42.7101 24.8041 42.0923 24.7058C41.4738 24.6052 40.8552 24.5046 40.218 24.4009C39.269 24.2437 39.269 24.2437 38.3008 24.0833C37.3438 23.9224 37.3438 23.9224 36.3675 23.7584C35.7266 23.6493 35.0856 23.5402 34.4253 23.4277C33.7838 23.3172 33.1423 23.2067 32.4814 23.0929C31.8482 22.9827 31.2149 22.8725 30.5625 22.759C29.9496 22.6515 29.3366 22.544 28.7051 22.4333C27.8053 22.2741 27.8053 22.2741 26.8872 22.1118C26.2967 22.0068 25.7062 21.9017 25.0978 21.7934C24.5176 21.6893 23.9375 21.5851 23.3398 21.4778C22.2102 21.2714 21.0806 21.065 19.9167 20.8523C18.8305 20.6565 17.7442 20.4607 16.625 20.259C15.0391 19.9982 15.0391 19.9982 13.4211 19.7322C12.4417 19.5683 11.4623 19.4044 10.4531 19.2356C9.16583 19.028 9.16583 19.028 7.85254 18.8162C7.11745 18.6323 6.38236 18.4485 5.625 18.259C5.03687 17.9476 4.44873 17.6361 3.84277 17.3152C3.37903 16.9254 2.91529 16.5356 2.4375 16.134C1.83937 15.1853 1.24125 14.2365 0.625 13.259C0.471602 12.6222 0.318203 11.9854 0.160156 11.3293C0.107305 10.6461 0.0544531 9.96294 0 9.25903C0.0773437 8.2381 0.0773437 8.2381 0.15625 7.19653C0.310937 6.55716 0.465625 5.91778 0.625 5.25903C0.882813 4.72278 1.14063 4.18653 1.40625 3.63403C1.76719 3.18028 2.12812 2.72653 2.5 2.25903C2.94328 1.90559 3.38655 1.55214 3.84326 1.18799C4.43124 0.881433 5.01921 0.574878 5.625 0.259033Z" sodipodi:nodetypes="cccccccccccccccccccccccccccccccccccccccccccccccccccccccccccccccccccccccccccccccccccccccccccccccccccccccccccccccccccccccccccccccccccccccc"/><path id="shape5" transform="matrix(0.942602954024725 -0.000485746891798727 0.000485746891798728 0.942602954024725 231.635905980962 196.307079851664)" fill="#bd314b" stroke-opacity="0" stroke="#000000" stroke-width="0" stroke-linecap="square" stroke-linejoin="bevel" d="M5.66406 0.238281C6.39915 0.164402 7.13424 0.0905225 7.8916 0.0144043C8.74979 0.00965088 9.60799 0.00489746 10.4922 0C11.4716 0.0132935 12.4511 0.0265869 13.4602 0.0402832C14.5175 0.105623 15.5748 0.170962 16.6641 0.238281C17.7503 0.384187 18.8366 0.530093 19.9558 0.68042C21.0854 0.872249 22.2151 1.06408 23.3789 1.26172C23.9591 1.36715 24.5392 1.47258 25.137 1.58121C25.7275 1.69145 26.3181 1.8017 26.9265 1.91528C27.5264 2.02958 28.1264 2.14387 28.7445 2.26163C29.3573 2.37767 29.9702 2.49372 30.6016 2.61328C31.5509 2.78602 31.5509 2.78602 32.5194 2.96225C33.4811 3.13405 33.4811 3.13405 34.4622 3.30933C35.1028 3.42273 35.7434 3.53613 36.4034 3.65297C37.0411 3.76491 37.6789 3.87685 38.3359 3.99219C38.9684 4.1032 39.6009 4.21422 40.2525 4.3286C40.8711 4.4356 41.4896 4.54259 42.127 4.65283C43.0269 4.80477 43.0269 4.80477 43.9451 4.95978C44.5123 5.05168 45.0796 5.14359 45.6641 5.23828C46.6534 5.38121 47.6428 5.52413 48.6621 5.67139C49.5548 5.78499 50.4475 5.89858 51.3672 6.01563C52.2084 6.11158 53.0496 6.20753 53.9163 6.3064C54.7199 6.38704 55.5236 6.46769 56.3516 6.55078C57.152 6.62305 57.9524 6.69532 58.7771 6.76978C59.949 6.86247 59.949 6.86247 61.1445 6.95703C61.9017 7.0073 62.6589 7.05758 63.439 7.10938C64.1732 7.15191 64.9075 7.19445 65.6641 7.23828C66.3687 7.27824 67.0733 7.3182 67.7993 7.35938C68.4933 7.3916 69.1873 7.42383 69.9023 7.45703C70.6017 7.47822 71.301 7.49941 72.0215 7.52124C72.7285 7.53099 73.4356 7.54074 74.1641 7.55078C74.8776 7.54828 75.5911 7.54579 76.3262 7.54321C77.0732 7.52637 77.8202 7.50954 78.5898 7.49219C79.7802 7.44409 79.7802 7.44409 80.9946 7.39502C81.8755 7.3433 82.7565 7.29157 83.6641 7.23828C84.701 7.15949 85.7378 7.08069 86.8062 6.99951C88.4896 6.8528 88.4896 6.8528 90.207 6.70313C91.074 6.62145 91.074 6.62145 91.9584 6.53812C92.5452 6.48042 93.132 6.42273 93.7366 6.36328C94.3312 6.30253 94.9259 6.24179 95.5386 6.1792C96.1369 6.1162 96.7352 6.05319 97.3516 5.98828C97.9485 5.92415 98.5454 5.86002 99.1604 5.79395C100.055 5.69485 100.055 5.69485 100.969 5.59375C101.863 5.49104 101.863 5.49104 102.775 5.38626C103.37 5.31551 103.965 5.24477 104.578 5.17188C105.469 5.06249 105.469 5.06249 106.378 4.9509C106.968 4.87542 107.558 4.79994 108.165 4.72217C108.748 4.64408 109.33 4.56599 109.931 4.48553C110.503 4.40394 111.075 4.32235 111.664 4.23828C112.762 4.06184 113.86 3.8854 114.991 3.70361C116.046 3.52041 117.101 3.3372 118.188 3.14844C119.209 2.96636 120.23 2.78428 121.282 2.59668C122.254 2.41653 123.226 2.23639 124.227 2.05078C125.123 1.87192 126.019 1.69307 126.942 1.50879C127.8 1.34347 128.659 1.17814 129.543 1.00781C130.375 0.863679 131.207 0.719546 132.063 0.571045C132.922 0.461233 133.78 0.351421 134.664 0.238281C136.141 0.155741 136.141 0.155741 137.647 0.0715332C138.629 0.0569507 139.61 0.0423682 140.621 0.0273438C141.957 0.0246851 141.957 0.0246851 143.32 0.0219727C144.48 0.129045 144.48 0.129045 145.664 0.238281C146.695 0.753906 147.727 1.26953 148.789 1.80078C149.408 2.60516 150.027 3.40953 150.664 4.23828C150.879 4.77066 151.095 5.30305 151.316 5.85156C151.452 6.43293 151.587 7.0143 151.727 7.61328C151.76 8.21398 151.794 8.81469 151.828 9.43359C151.747 10.3269 151.747 10.3269 151.664 11.2383C151.313 12.3108 150.963 13.3833 150.602 14.4883C150.032 15.2228 150.032 15.2228 149.452 15.9722C148.862 16.39 148.272 16.8078 147.664 17.2383C146.747 17.513 145.831 17.7877 144.886 18.0708C143.767 18.2936 142.649 18.5165 141.496 18.7461C140.882 18.8696 140.268 18.993 139.636 19.1202C138.996 19.2462 138.355 19.3722 137.696 19.502C137.034 19.6248 136.373 19.7477 135.691 19.8743C135.022 19.9944 134.353 20.1145 133.664 20.2383C133.007 20.3536 132.35 20.4689 131.673 20.5876C131.016 20.6999 130.358 20.8121 129.681 20.9277C129.018 21.038 128.355 21.1482 127.672 21.2618C127.004 21.3701 126.337 21.4783 125.648 21.5898C124.974 21.6962 124.299 21.8025 123.604 21.912C122.925 22.0171 122.246 22.1222 121.547 22.2305C120.867 22.3346 120.186 22.4387 119.485 22.5459C118.802 22.6506 118.118 22.7554 117.414 22.8633C116.723 22.9716 116.033 23.0798 115.321 23.1914C114.633 23.2997 113.944 23.408 113.234 23.5195C112.555 23.6254 111.876 23.7313 111.177 23.8405C110.173 23.9948 110.173 23.9948 109.148 24.1523C108.486 24.2514 107.824 24.3505 107.142 24.4525C106.182 24.593 106.182 24.593 105.203 24.7363C104.593 24.8237 103.982 24.9112 103.354 25.0012C102.796 25.0795 102.238 25.1577 101.664 25.2383C100.785 25.3575 99.9058 25.4768 99 25.5996C98.224 25.6892 97.448 25.7788 96.6484 25.8711C95.8727 25.9405 95.0971 26.01 94.2979 26.0815C93.4287 26.1333 92.5596 26.185 91.6641 26.2383C89.962 26.2985 89.962 26.2985 88.2256 26.3599C87.6033 26.375 86.981 26.3902 86.3399 26.4058C85.694 26.4176 85.0482 26.4293 84.3828 26.4414C83.4019 26.4532 83.4019 26.4532 82.4011 26.4651C81.732 26.47 81.0629 26.4748 80.3735 26.4797C79.3443 26.4831 79.3443 26.4831 78.2943 26.4865C77.5913 26.4871 76.8883 26.4877 76.1641 26.4883C75.4406 26.489 74.7172 26.4896 73.9719 26.4903C73.2378 26.4892 72.5038 26.4882 71.7476 26.4871C71.0108 26.4831 70.2741 26.4791 69.515 26.4749C68.7779 26.4677 68.0407 26.4605 67.2813 26.4531C66.5451 26.4423 65.809 26.4314 65.0506 26.4202C64.3259 26.4051 63.6012 26.39 62.8545 26.3745C61.7929 26.3451 61.7929 26.3451 60.7098 26.3151C60.0347 26.2898 59.3596 26.2644 58.6641 26.2383C58.047 26.2052 57.4299 26.1721 56.7941 26.138C56.2114 26.0991 55.6287 26.0601 55.0283 26.02C53.9207 25.9283 52.8131 25.8367 51.6719 25.7422C50.6028 25.635 49.5338 25.5279 48.4324 25.4175C47.3951 25.2965 46.3578 25.1755 45.2891 25.0508C44.2627 24.9195 43.2364 24.7881 42.179 24.6528C41.1518 24.5096 40.1247 24.3663 39.0664 24.2188C38.035 24.0633 37.0036 23.9078 35.9409 23.7476C34.8596 23.5795 33.7782 23.4114 32.6641 23.2383C32.0712 23.1487 31.4783 23.0591 30.8675 22.9669C30.254 22.8742 29.6404 22.7815 29.0083 22.686C28.3866 22.591 27.7649 22.4959 27.1243 22.3979C26.4994 22.3001 25.8744 22.2023 25.2305 22.1016C24.302 21.9496 24.302 21.9496 23.3547 21.7946C22.7412 21.6918 22.1277 21.589 21.4956 21.4832C20.8889 21.3797 20.2822 21.2762 19.6572 21.1695C19.0613 21.0685 18.4655 20.9674 17.8516 20.8633C17.2702 20.7704 16.6889 20.6774 16.0899 20.5817C15.5254 20.49 14.961 20.3984 14.3794 20.304C13.3119 20.1095 12.2444 19.9151 11.1445 19.7148C9.68032 19.3875 9.68032 19.3875 8.18652 19.0535C7.35411 18.7845 6.5217 18.5154 5.66406 18.2383C5.05595 17.8694 4.44783 17.5005 3.82129 17.1204C3.36593 16.7042 2.91057 16.2881 2.44141 15.8594C1.85488 14.9944 1.26836 14.1295 0.664063 13.2383C0.444922 12.4739 0.225781 11.7095 0 10.9219C0.0128906 10.1807 0.0257812 9.43945 0.0390625 8.67578C0.0919141 7.90234 0.144766 7.12891 0.199219 6.33203C0.352617 5.64109 0.506016 4.95016 0.664063 4.23828C1.26219 3.39266 1.86031 2.54703 2.47656 1.67578C4.05438 0.964219 4.05438 0.964219 5.66406 0.238281Z" sodipodi:nodetypes="cccccccccccccccccccccccccccccccccccccccccccccccccccccccccccccccccccccccccccccccccccccccccccccccccccccccccccccccccccccccccccccccccccccccccccccc"/><path id="shape6" transform="matrix(0.942602954024725 -0.000485746891798727 0.000485746891798727 0.942602954024725 422.635493903366 133.809057265347)" fill="#fdfbfb" stroke-opacity="0" stroke="#000000" stroke-width="0" stroke-linecap="square" stroke-linejoin="bevel" d="M23 0.4375C23.678 0.294414 24.3561 0.151328 25.0547 0.00390625C25.9557 0.00197266 25.9557 0.00197266 26.875 0C27.5518 0.0322266 28.2285 0.0644531 28.9258 0.0976563C29.9525 0.265879 29.9525 0.265879 31 0.4375C31.6742 0.642461 32.3484 0.847422 33.043 1.05859C33.7094 1.34863 34.3759 1.63867 35.0625 1.9375C35.7199 2.31391 36.3773 2.69031 37.0547 3.07813C37.6966 3.52672 38.3386 3.97531 39 4.4375C39.6213 4.92734 40.2427 5.41719 40.8828 5.92188C41.4784 6.50453 42.0739 7.08719 42.6875 7.6875C43.2495 8.38617 43.8116 9.08484 44.3906 9.80469C44.9217 10.6735 45.4528 11.5423 46 12.4375C46.2597 12.9792 46.5195 13.521 46.7871 14.0791C47.0378 14.6743 47.2886 15.2696 47.5469 15.8828C47.7838 16.5156 48.0208 17.1483 48.2649 17.8003C48.5978 18.7963 48.5978 18.7963 48.9375 19.8125C49.2463 20.8375 49.2463 20.8375 49.5613 21.8833C49.746 22.587 49.9308 23.2906 50.1211 24.0156C50.3626 25.0994 50.3626 25.0994 50.6089 26.2051C50.8025 27.3101 50.8025 27.3101 51 28.4375C51.084 29.1845 51.1679 29.9315 51.2544 30.7012C51.3058 31.4546 51.3572 32.2081 51.4102 32.9844C51.4365 33.7393 51.4628 34.4942 51.49 35.272C51.4949 36.4058 51.4949 36.4058 51.5 37.5625C51.4846 38.3222 51.4692 39.082 51.4534 39.8647C51.4198 40.6132 51.3862 41.3617 51.3516 42.1328C51.3003 42.8627 51.2491 43.5927 51.1963 44.3447C51.0991 45.3806 51.0991 45.3806 51 46.4375C50.9275 47.0533 50.855 47.6692 50.7803 48.3037C50.6531 49.1704 50.6531 49.1704 50.5234 50.0547C50.3095 51.171 50.0955 52.2873 49.875 53.4375C49.743 53.9959 49.6109 54.5543 49.4749 55.1296C49.3272 55.6966 49.1795 56.2635 49.0273 56.8477C48.7835 57.7161 48.7835 57.7161 48.5347 58.6021C48.3582 59.2077 48.1818 59.8134 48 60.4375C47.812 61.0909 47.6239 61.7443 47.4302 62.4175C47.2276 63.1034 47.0251 63.7894 46.8164 64.4961C46.5964 65.2091 46.3764 65.9221 46.1497 66.6567C45.9146 67.3888 45.6796 68.1208 45.4375 68.875C45.1928 69.607 44.9481 70.3391 44.696 71.0933C44.4303 71.8527 44.1645 72.6121 43.8906 73.3945C43.5999 74.1907 43.3093 74.9868 43.0098 75.8071C42.6765 76.6752 42.3433 77.5432 42 78.4375C41.592 79.4435 41.184 80.4494 40.7637 81.4858C40.3209 82.5463 39.8781 83.6067 39.4219 84.6992C38.9714 85.755 38.521 86.8109 38.0569 87.8987C37.605 88.9427 37.1531 89.9868 36.6875 91.0625C36.2427 92.0892 35.7979 93.1158 35.3396 94.1736C34.922 95.1192 34.5044 96.0648 34.0742 97.0391C33.6987 97.8881 33.3232 98.7371 32.9363 99.6118C32.6273 100.214 32.3183 100.817 32 101.438C31.67 101.438 31.34 101.438 31 101.438C30.9334 100.926 30.8667 100.414 30.7981 99.8872C30.7577 99.1639 30.7174 98.4406 30.6758 97.6953C30.6201 96.8853 30.5644 96.0753 30.5071 95.2407C30.4429 94.3569 30.3787 93.4731 30.3125 92.5625C30.2335 91.6594 30.1544 90.7562 30.073 89.8257C29.9767 88.9035 29.8804 87.9814 29.7813 87.0313C29.6665 86.0941 29.5518 85.157 29.4336 84.1914C29.219 82.8282 29.219 82.8282 29 81.4375C28.8131 80.6164 28.6262 79.7952 28.4336 78.9492C28.2183 78.1719 28.003 77.3946 27.7813 76.5938C27.5471 75.8377 27.313 75.0817 27.0718 74.3027C26.8212 73.5635 26.5707 72.8242 26.3125 72.0625C25.9193 70.9536 25.9193 70.9536 25.5181 69.8223C25.2466 69.0972 24.975 68.3721 24.6953 67.625C24.4159 66.9212 24.1365 66.2173 23.8486 65.4922C23.5686 64.8141 23.2885 64.1361 23 63.4375C22.5954 62.4746 22.5954 62.4746 22.1826 61.4922C21.9135 60.876 21.6444 60.2598 21.3672 59.625C21.0929 59.0281 20.8185 58.4312 20.5359 57.8162C20.2559 57.2375 19.976 56.6587 19.6875 56.0625C19.4004 55.4999 19.1134 54.9373 18.8176 54.3577C18.5207 53.8078 18.2239 53.2579 17.918 52.6914C17.6104 52.1527 17.3028 51.6141 16.9858 51.0591C16.6605 50.524 16.3352 49.9888 16 49.4375C15.645 48.8934 15.29 48.3492 14.9243 47.7886C14.5535 47.2486 14.1828 46.7087 13.8008 46.1523C13.2336 45.3614 13.2336 45.3614 12.655 44.5544C12.2739 44.0415 11.8927 43.5285 11.5 43C11.1234 42.5044 10.7467 42.0089 10.3586 41.4983C9.98506 41.0245 9.61147 40.5507 9.22656 40.0625C8.4918 39.1962 7.75703 38.33 7 37.4375C5.92879 36.3856 5.92879 36.3856 4.83594 35.3125C4.18883 34.7144 3.54172 34.1163 2.875 33.5C2.29492 33.0166 1.71484 32.5332 1.11719 32.0352C0.748516 31.5079 0.379844 30.9807 0 30.4375C0.0438281 29.6666 0.0876562 28.8958 0.132813 28.1016C0.418984 27.2224 0.705156 26.3433 1 25.4375C1.43313 24.5261 1.86625 23.6148 2.3125 22.6758C2.86938 21.7103 3.42625 20.7448 4 19.75C4.30543 19.2325 4.61085 18.715 4.92554 18.1819C5.24788 17.6552 5.57023 17.1286 5.90234 16.5859C6.24121 16.061 6.58007 15.536 6.9292 14.9951C7.28256 14.4811 7.63593 13.9671 8 13.4375C8.36754 12.9493 8.73509 12.461 9.11377 11.958C9.49001 11.4898 9.86626 11.0215 10.2539 10.5391C10.8292 9.86363 10.8292 9.86363 11.416 9.17456C11.7944 8.74571 12.1727 8.31685 12.5625 7.875C13.265 7.08996 13.9676 6.30492 14.6914 5.49609C15.4532 4.81676 16.2151 4.13742 17 3.4375C17.4873 3.13207 17.9745 2.82665 18.4766 2.51196C19.2481 2.10385 19.2481 2.10385 20.0352 1.6875C21.0136 1.275 21.992 0.8625 23 0.4375Z" sodipodi:nodetypes="ccccccccccccccccccccccccccccccccccccccccccccccccccccccccccccccccccccccccccccccccccccccccccccccccccccccccc"/><path id="shape7" transform="matrix(0.942602954024725 -0.000485746891798727 0.000485746891798727 0.942602954024725 135.725565889248 133.780171030649)" fill="#fdfbfb" stroke-opacity="0" stroke="#000000" stroke-width="0" stroke-linecap="square" stroke-linejoin="bevel" d="M18.3804 0.625C19.4845 0.389102 19.4845 0.389102 20.6108 0.148438C21.3598 0.0994531 22.1087 0.0504688 22.8804 0C23.6306 0.0476953 24.3808 0.0953906 25.1538 0.144531C26.256 0.382363 26.256 0.382363 27.3804 0.625C28.0739 0.917617 28.7674 1.21023 29.4819 1.51172C30.1497 1.89973 30.8174 2.28773 31.5054 2.6875C32.4838 3.38746 32.4838 3.38746 33.4819 4.10156C34.1084 4.6043 34.7349 5.10703 35.3804 5.625C35.9656 6.08648 36.5508 6.54797 37.1538 7.02344C37.7236 7.53133 38.2933 8.03922 38.8804 8.5625C39.4372 9.14645 39.9941 9.73039 40.5679 10.332C41.166 11.0887 41.7641 11.8454 42.3804 12.625C42.9237 13.4185 42.9237 13.4185 43.478 14.228C44.0484 15.111 44.0484 15.111 44.6304 16.0117C45.1921 16.9313 45.1921 16.9313 45.7651 17.8694C46.3172 18.8003 46.3172 18.8003 46.8804 19.75C47.2432 20.348 47.6061 20.9461 47.98 21.5623C48.308 22.1424 48.6361 22.7226 48.9741 23.3203C49.2511 23.8829 49.5281 24.4455 49.8135 25.0251C50.0006 25.5531 50.1876 26.081 50.3804 26.625C50.3378 27.9766 50.3378 27.9766 50.2944 29.3555C49.9928 30.1044 49.6912 30.8534 49.3804 31.625C48.924 32.1754 48.4677 32.7259 47.9976 33.293C47.4226 33.7944 46.8477 34.2959 46.2554 34.8125C45.6224 35.4145 44.9895 36.0165 44.3374 36.6367C43.6916 37.2929 43.0458 37.949 42.3804 38.625C41.5199 39.6865 41.5199 39.6865 40.6421 40.7695C40.0813 41.5468 39.5206 42.3241 38.9429 43.125C38.3692 43.9771 37.7956 44.8291 37.2046 45.707C36.6026 46.67 36.0006 47.6329 35.3804 48.625C35.0486 49.1772 34.7168 49.7294 34.375 50.2983C34.0326 50.8844 33.6902 51.4704 33.3374 52.0742C32.8213 52.9848 32.8213 52.9848 32.2947 53.9138C31.9517 54.5404 31.6087 55.1669 31.2554 55.8125C30.7496 56.7785 30.7496 56.7785 30.2336 57.7639C29.9057 58.4142 29.5777 59.0644 29.2397 59.7344C28.9233 60.386 28.6068 61.0376 28.2808 61.709C27.9836 62.3413 27.6865 62.9736 27.3804 63.625C27.1142 64.2031 26.848 64.7813 26.5737 65.377C26.3295 65.9383 26.0852 66.4997 25.8335 67.0781C25.4931 67.9343 25.4931 67.9343 25.1458 68.8079C24.9344 69.3869 24.7231 69.9659 24.5054 70.5625C24.305 71.146 24.1046 71.7296 23.8982 72.3308C23.7131 72.9525 23.5281 73.5743 23.3374 74.2148C23.1693 74.8876 23.0013 75.5603 22.8281 76.2534C22.6065 77.4274 22.6065 77.4274 22.3804 78.625C22.2597 79.6203 22.139 80.6156 22.0146 81.6411C21.9123 82.7302 21.81 83.8193 21.7046 84.9414C21.6135 86.043 21.5225 87.1446 21.4287 88.2795C21.3509 89.3835 21.2731 90.4875 21.1929 91.625C21.1331 92.7193 21.0733 93.8137 21.0117 94.9412C20.9542 95.9506 20.8967 96.96 20.8374 98C20.7959 98.9152 20.7544 99.8305 20.7117 100.773C20.6023 101.384 20.493 101.995 20.3804 102.625C19.7204 102.295 19.0604 101.965 18.3804 101.625C17.9984 100.848 17.6164 100.071 17.2229 99.271C16.8044 98.2406 16.3858 97.2101 15.9546 96.1484C15.6125 95.3119 15.6125 95.3119 15.2635 94.4585C15.0268 93.8771 14.79 93.2958 14.5461 92.6968C14.3042 92.0926 14.0622 91.4884 13.813 90.8659C13.5671 90.2502 13.3212 89.6344 13.0679 89C12.8198 88.3844 12.5718 87.7688 12.3162 87.1346C12.068 86.5186 11.8199 85.9027 11.5642 85.2681C11.3183 84.6546 11.0724 84.0411 10.8191 83.4091C10.5764 82.7997 10.3336 82.1903 10.0835 81.5625C9.84369 80.9548 9.60387 80.3471 9.3568 79.721C9.00978 78.8343 9.00978 78.8343 8.65576 77.9297C8.4359 77.3631 8.21603 76.7966 7.9895 76.2129C7.78849 75.6889 7.58748 75.1649 7.38037 74.625C7.06004 73.7665 6.73971 72.908 6.40967 72.0234C6.14734 71.2938 5.88502 70.5642 5.61475 69.8125C5.3857 69.1494 5.15665 68.4864 4.92065 67.8032C4.72174 67.2082 4.52282 66.6131 4.31787 66C3.97627 64.9559 3.63467 63.9117 3.28271 62.8359C2.98494 61.7763 2.68717 60.7167 2.38037 59.625C2.19926 58.9714 2.01814 58.3179 1.83154 57.6445C1.65043 56.9239 1.46932 56.2034 1.28271 55.4609C1.11812 54.6941 0.95352 53.9273 0.783936 53.1372C0.584171 51.8937 0.584171 51.8937 0.380371 50.625C0.307136 49.7148 0.233901 48.8045 0.158447 47.8667C0.120823 46.9052 0.0831982 45.9437 0.0444336 44.9531C0.0297705 43.9651 0.0151074 42.977 0 41.959C0.00177246 40.9413 0.00354492 39.9236 0.00537109 38.875C0.00843261 37.816 0.0114941 36.7571 0.0146484 35.666C0.0322119 34.6161 0.0497754 33.5661 0.0678711 32.4844C0.106543 31.4718 0.145215 30.4593 0.185059 29.416C0.249512 28.495 0.313965 27.5739 0.380371 26.625C0.480918 25.8844 0.581465 25.1439 0.685059 24.3809C0.811387 23.7447 0.937715 23.1086 1.06787 22.4531C1.53193 20.8057 1.53193 20.8057 2.00537 19.125C2.55838 17.6709 2.55838 17.6709 3.12256 16.1875C3.53764 15.3419 3.95271 14.4962 4.38037 13.625C5.03393 12.4494 5.03393 12.4494 5.70068 11.25C6.17248 10.5488 6.64428 9.8475 7.13037 9.125C7.64471 8.51656 8.15904 7.90813 8.68896 7.28125C9.24713 6.73469 9.80529 6.18813 10.3804 5.625C11.295 4.83609 11.295 4.83609 12.228 4.03125C12.8764 3.56719 13.5248 3.10312 14.1929 2.625C14.8696 2.24602 15.5464 1.86703 16.2437 1.47656C17.3013 1.05504 17.3013 1.05504 18.3804 0.625Z" sodipodi:nodetypes="ccccccccccccccccccccccccccccccccccccccccccccccccccccccccccccccccccccccccccccccccccccccccccccccccccccc"/>
</svg>
